<?xml version="1.0" encoding="utf-8"?>
<!-- Generator: Adobe Illustrator 16.0.0, SVG Export Plug-In . SVG Version: 6.00 Build 0)  -->
<!DOCTYPE svg PUBLIC "-//W3C//DTD SVG 1.1//EN" "http://www.w3.org/Graphics/SVG/1.1/DTD/svg11.dtd">
<svg version="1.1" xmlns="http://www.w3.org/2000/svg" xmlns:xlink="http://www.w3.org/1999/xlink" x="0px" y="0px"
	 width="439.266px" height="439.266px" viewBox="0 0 439.266 439.266" enable-background="new 0 0 439.266 439.266"
	 xml:space="preserve">
<g id="图层_1">
</g>
<g id="图层_1_x5F_复制">
</g>
<g id="图层_1_x5F_复制_2">
	<path fill-rule="evenodd" clip-rule="evenodd" d="M374.601,251.02c-2.825-1.5-3.517-2.773-2.539-5.882
		c8.312-26.438,10.165-53.341,4.929-80.595c-3.379-17.591-8.882-34.443-18.235-49.919c-1.159-1.916-2.863-3.877-3.246-6.167
		c-0.201-0.315-0.368-0.651-0.513-0.998c-0.343-0.49-0.609-1.03-0.803-1.599c-0.112-0.195-0.222-0.393-0.309-0.602
		c-0.597-0.655-1.037-1.435-1.311-2.279c-0.231-0.216-0.445-0.444-0.64-0.691c-0.306-0.302-0.571-0.636-0.803-0.995
		c-0.667-0.449-1.179-1.142-1.604-1.859c-2.904-4.915-6.63-9.649-10.354-13.412c-3.6-3.637-6.323-8.12-10.278-11.614
		c-4.852-4.287-11.018-6.839-15.066-11.467c-2.564-2.935-5.489-3.855-8.305-5.7c-14.687-9.632-30.48-17.15-47.331-21.526
		c-22.591-5.869-45.747-7.627-69.063-4.253c-0.63,0.091-1.287,0.403-1.876,0.298c-0.443-0.079-0.876-0.118-1.314-0.174
		c-0.719,0.29-1.539,0.46-2.47,0.46c-0.274,0-0.537-0.016-0.792-0.043c-0.257,0.028-0.523,0.043-0.8,0.043
		c-0.158,0-0.307-0.013-0.458-0.022c-0.559,0.219-1.191,0.343-1.872,0.397c-0.112,0.042-0.213,0.103-0.329,0.141
		c-0.852,0.279-1.729,0.384-2.611,0.45c-0.154,0.076-0.325,0.13-0.489,0.194c-0.695,0.594-1.553,1.038-2.585,1.249
		c-0.089,0.072-0.181,0.127-0.27,0.203c-0.527,0.452-1.658,0.146-2.282,0.546c-0.563,0.361-1.195,0.304-1.86,0.076
		c-0.254,0.105-0.537,0.175-0.817,0.247c-0.718,0.439-1.57,0.737-2.56,0.835c-0.656,0.335-1.399,0.57-2.261,0.641
		c-0.446,0.205-0.939,0.354-1.473,0.449c-1.347,1.612-7.835,1.001-10.179,2.717c-8.343,6.108-18.522,8.158-27.014,14.083
		c-13.857,9.671-26.894,20.062-38.488,32.34c-1.453,1.538-2.064,4.369-4.021,5.412c-0.412,0.672-0.953,1.262-1.623,1.723
		c-0.489,1.145-1.273,2.149-2.406,2.795c-0.153,0.287-0.33,0.559-0.524,0.819c-0.234,0.497-0.525,0.963-0.884,1.378
		c-2.875,6.71-7.818,12.336-11.258,18.735c-11.908,22.146-18.409,45.552-19.212,70.613c-0.118,3.703,0.204,7.444-0.798,11.062
		c0.03,0.464,0.015,0.93-0.042,1.391c0.218,1.092,0.183,2.235-0.102,3.307c0.131,0.619,0.181,1.256,0.148,1.889
		c3.064,12.228,3.158,25.09,7.793,36.971c1.473,3.776,1.002,6.766-2.748,8.91c-10.012,5.729-16.738,13.993-19.437,25.352
		c-0.139,0.584-0.648,1.082-0.984,1.619v17.189c2.48,7.253,5.059,14.541,10.739,19.978c9.907,9.483,21.29,14.857,35.432,11.429
		c2.472-0.599,4.96-1.141,7.402-1.844c1.374-0.396,1.97-0.137,3.081,1.042c8.189,8.689,14.076,19.221,22.607,27.655
		c9.964,9.854,19.945,19.61,32.434,26.296c3.463,1.853,4.326,3.766,2.09,7.509c-8.019,13.422-18.631,24.654-30.464,34.491
		c-5.338,4.439-9.624,10.488-16.552,13.043c-1.011,0.371-2.475,1.473-1.946,2.907c0.521,1.414,2.178,0.951,3.391,1.053
		c1.107,0.09,2.227,0.044,3.341,0.044c76.072,0.001,152.143,0.008,228.215-0.031c2.317-0.001,5.882,1.042,6.658-0.989
		c1.015-2.662-2.826-3.201-4.56-4.513c-13.836-10.477-26.471-22.194-37.23-35.83c-3.832-4.859-7.188-10.1-10.67-15.227
		c-1.211-1.781-2.253-4.175,0.339-5.335c7.779-3.484,12.783-10.335,19.198-15.445c11.53-9.185,19.756-21.445,28.294-33.295
		c4.073-5.655,3.795-5.855,10.514-3.466c17.388,6.19,33.641,2.274,44.629-11.781C403.089,293.092,397.227,263.024,374.601,251.02z"
		/>
	<g>
		<defs>
			<rect id="SVGID_1_" x="-70.015" y="-17.861" width="550.142" height="550.142"/>
		</defs>
		<clipPath id="SVGID_2_">
			<use xlink:href="#SVGID_1_"  overflow="visible"/>
		</clipPath>
		<ellipse clip-path="url(#SVGID_2_)" stroke="#000000" stroke-miterlimit="10" cx="-91.071" cy="525" rx="12.071" ry="29.5"/>
		<line clip-path="url(#SVGID_2_)" stroke="#000000" stroke-miterlimit="10" x1="395.003" y1="529.333" x2="395.003" y2="529.333"/>
		<path clip-path="url(#SVGID_2_)" fill="none" stroke="#000000" stroke-miterlimit="10" d="M210.5,511"/>
		<path clip-path="url(#SVGID_2_)" fill="none" stroke="#000000" stroke-miterlimit="10" d="M210.5,223"/>
		<ellipse clip-path="url(#SVGID_2_)" stroke="#000000" stroke-miterlimit="10" cx="507.5" cy="521.641" rx="17.5" ry="18.64"/>
		
			<path clip-path="url(#SVGID_2_)" fill-rule="evenodd" clip-rule="evenodd" fill="#FFFFFF" stroke="#000000" stroke-miterlimit="10" d="
			M358.453,184.076c0,1.221,0,2.224,0,3.413c-0.629,0.029-1.224,0.08-1.818,0.08c-6.472,0.005-12.941-0.034-19.412,0.044
			c-0.986,0.012-2.121,0.343-2.922,0.904c-12.674,8.888-20.974,21.105-26.556,35.322c-4.215,10.735-6.625,21.905-7.483,33.396
			c-0.348,4.65-0.381,9.324-0.642,13.982c-0.09,1.606,0.504,2.716,1.636,3.822c4.983,4.877,9.88,9.84,14.753,14.716
			c-0.797,0.861-1.543,1.666-2.374,2.564c-0.468-0.441-0.916-0.844-1.341-1.269c-4.699-4.691-9.369-9.411-14.118-14.051
			c-0.666-0.65-1.671-1.159-2.589-1.313c-20.898-3.512-39.706,2.219-57.265,13.18c-9.74,6.081-18.435,13.446-26.064,22.035
			c-0.495,0.557-0.801,1.482-0.808,2.239c-0.063,6.527-0.035,13.055-0.035,19.582c0,0.609,0,1.219,0,1.925c-1.225,0-2.323,0-3.631,0
			c0-0.608,0-1.207,0-1.807c0-6.527,0.035-13.055-0.04-19.582c-0.01-0.931-0.342-2.01-0.882-2.762
			c-10.649-14.839-25.221-24.092-42.451-29.396c-13.499-4.155-27.336-5.797-41.447-4.819c-0.797,0.054-1.729,0.503-2.304,1.068
			c-5.012,4.93-9.956,9.928-15.063,15.047c-0.734-0.966-1.402-1.845-2.071-2.724c-0.293-0.061-0.585-0.121-0.877-0.182
			c0.546-0.293,1.202-0.477,1.625-0.895c4.443-4.389,8.875-8.791,13.239-13.259c0.608-0.621,1.15-1.596,1.193-2.436
			c1.416-27.483-4.657-52.702-22.953-74.039c-3.199-3.73-7.075-6.895-10.752-10.192c-0.739-0.663-1.993-1.037-3.017-1.052
			c-6.414-0.093-12.828-0.048-19.243-0.048c-0.608,0-1.215,0-1.93,0c0-1.196,0-2.236,0-3.496c0.593,0,1.191,0,1.79,0
			c6.471,0,12.942,0.039,19.412-0.036c1.125-0.013,2.353-0.288,3.35-0.798c9.334-4.787,15.576-12.536,20.378-21.603
			c5.094-9.62,8.072-19.956,10.035-30.596c1.922-10.413,2.882-20.927,2.858-31.529c-0.003-1.516-0.396-2.606-1.506-3.684
			c-4.721-4.58-9.347-9.258-13.931-13.824c0.86-0.88,1.624-1.661,2.605-2.666c2.69,2.75,5.462,5.602,8.255,8.432
			c2.411,2.443,4.825,4.883,7.294,7.268c0.429,0.415,1.151,0.807,1.708,0.769c12.866-0.89,25.552-2.867,37.906-6.662
			c13.043-4.006,25.313-9.618,35.948-18.3c3.552-2.899,6.659-6.355,9.854-9.667c0.614-0.636,0.961-1.786,0.972-2.704
			c0.081-6.864,0.044-13.729,0.048-20.594c0-0.271,0.036-0.541,0.062-0.9c1.184,0,2.279,0,3.564,0c0,0.63,0,1.23,0,1.831
			c0,6.471-0.044,12.942,0.05,19.412c0.014,0.945,0.455,2.091,1.089,2.789c11.842,13.023,26.633,21.341,43.162,26.843
			c12.921,4.301,26.213,6.592,39.789,7.387c1.447,0.084,2.5-0.245,3.557-1.338c4.305-4.448,8.731-8.776,13.084-13.176
			c0.465-0.469,0.746-1.12,1.206-1.834c1.123,1.265,1.828,2.057,2.629,2.959c-0.224,0.25-0.529,0.628-0.871,0.97
			c-3.895,3.903-7.644,7.972-11.75,11.639c-2.589,2.311-3.405,5.043-3.786,8.249c-2.386,20.105,3.549,38.086,13.97,54.908
			c5.864,9.468,12.981,17.936,21.145,25.51c0.579,0.537,1.559,0.895,2.356,0.903c6.47,0.072,12.941,0.041,19.413,0.041
			C357.066,184.076,357.68,184.076,358.453,184.076z M211.416,65.308c0,7.681-0.015,14.992,0.032,22.302
			c0.003,0.54,0.325,1.217,0.723,1.593c2.693,2.547,5.272,5.259,8.208,7.496c16.52,12.588,35.677,17.448,55.996,18.738
			c0.61,0.038,1.411-0.359,1.87-0.81c4.967-4.897,9.885-9.844,14.809-14.785c0.284-0.286,0.506-0.635,0.808-1.018
			C262.908,96.14,234.415,87.91,211.416,65.308z M125.718,99.257c0.289,0.378,0.426,0.607,0.609,0.79
			c5.049,5.056,10.085,10.122,15.181,15.13c0.443,0.436,1.285,0.697,1.922,0.664c2.129-0.112,4.251-0.376,6.373-0.613
			c12.186-1.363,23.968-4.253,35.1-9.49c7.949-3.74,15.166-8.534,21.181-15.035c1.228-1.327,1.773-2.662,1.742-4.493
			c-0.106-6.074-0.034-12.151-0.037-18.227c0-0.59-0.049-1.181-0.088-2.049c-0.516,0.484-0.843,0.761-1.136,1.07
			c-4.511,4.763-9.609,8.813-15.143,12.31c-17.596,11.12-37.107,16.489-57.538,19.064C131.232,98.711,128.57,98.952,125.718,99.257z
			 M89.737,187.572c24.492,22.396,33.452,50.549,32.775,82.531c0.25-0.095,0.376-0.105,0.444-0.173
			c5.174-5.164,10.355-10.322,15.492-15.523c0.382-0.387,0.609-1.08,0.634-1.643c0.496-10.974-0.53-21.771-4.023-32.241
			c-4.161-12.473-10.959-23.2-21.106-31.702c-1.043-0.874-2.086-1.316-3.489-1.282c-3.766,0.095-7.535,0.032-11.303,0.032
			C96.143,187.572,93.124,187.572,89.737,187.572z M329.842,184.075c0.19-0.25,0.383-0.501,0.574-0.753
			c-0.548-0.275-1.214-0.432-1.624-0.843c-8.843-8.906-16.391-18.792-22.311-29.878c-7.268-13.614-11.411-28.031-10.968-43.588
			c0.063-2.222,0.311-4.438,0.495-6.988c-0.72,0.681-1.243,1.153-1.741,1.651c-4.378,4.372-8.778,8.72-13.093,13.153
			c-0.689,0.707-1.249,1.756-1.412,2.724c-1.305,7.701-0.834,15.34,1.147,22.88c4.256,16.205,13.458,29.365,25.331,40.843
			c0.521,0.503,1.486,0.761,2.249,0.768c6.692,0.058,13.386,0.032,20.077,0.031C328.993,184.075,329.418,184.075,329.842,184.075z
			 M329.004,187.665c-0.446-0.045-0.658-0.086-0.871-0.086c-6.583-0.004-13.167-0.044-19.75,0.04
			c-0.973,0.013-2.091,0.407-2.886,0.981c-5.536,4.002-10.079,8.971-13.65,14.779c-9.25,15.039-12.352,31.64-12.221,49.023
			c0.005,0.623,0.457,1.37,0.923,1.843c4.224,4.291,8.502,8.527,12.748,12.795c0.816,0.82,1.564,1.71,2.343,2.567
			c0.162-0.088,0.327-0.175,0.489-0.261c0-0.646-0.005-1.293,0.002-1.938c0.105-12.091,1.777-23.963,5.129-35.578
			c3.981-13.792,10.256-26.367,20.186-36.904C323.784,192.443,326.366,190.188,329.004,187.665z M91.877,184.076
			c5.729,0,11.519-0.163,17.293,0.067c2.969,0.119,5.316-0.822,7.613-2.483c6.745-4.876,11.104-11.544,14.255-19.063
			c5.87-14.01,7.728-28.773,7.878-43.822c0.007-0.672-0.449-1.499-0.945-2.002c-4.814-4.892-9.682-9.731-14.542-14.578
			c-0.292-0.292-0.644-0.523-1.117-0.903c-0.216,3.815-0.39,7.396-0.625,10.973c-0.779,11.804-2.65,23.423-6.139,34.745
			c-3.117,10.116-7.358,19.707-14.329,27.807C98.387,178.109,95.046,180.964,91.877,184.076z M207.638,305.099
			c0.053-0.144,0.123-0.242,0.123-0.342c0.011-6.974,0.035-13.948-0.009-20.924c-0.004-0.609-0.331-1.304-0.707-1.812
			c-3.264-4.409-7.032-8.345-11.461-11.593c-15.775-11.569-33.729-15.202-52.876-14.371c-0.538,0.024-1.167,0.391-1.566,0.787
			c-4.917,4.868-9.801,9.768-14.685,14.67c-0.238,0.238-0.396,0.558-0.689,0.978c0.791,0,1.349,0.011,1.906-0.001
			c11.641-0.226,23.101,1.067,34.344,4.123c13.921,3.782,26.569,9.992,37.222,19.867
			C202.155,299.184,204.803,302.173,207.638,305.099z M292.248,271.119c0.032,0.05-0.052-0.147-0.191-0.286
			c-4.848-4.859-9.688-9.725-14.572-14.546c-0.439-0.435-1.146-0.729-1.767-0.83c-7.597-1.228-15.145-0.848-22.57,1.091
			c-16.406,4.285-29.628,13.683-41.038,25.904c-0.434,0.465-0.662,1.297-0.667,1.96c-0.046,6.862-0.029,13.728-0.02,20.591
			c0.001,0.338,0.102,0.676,0.198,1.285c0.53-0.591,0.854-0.979,1.205-1.338c9.086-9.33,19.248-17.241,30.799-23.31
			c12.149-6.381,24.968-10.341,38.801-10.516C285.714,271.084,289.002,271.119,292.248,271.119z M274.827,118.213
			c-23.959-2.123-45.719-8.51-63.291-25.463c-0.07,0.354-0.111,0.465-0.111,0.575c-0.005,6.471-0.009,12.942-0.01,19.414
			c-0.001,8.518-0.014,8.538,7.089,13.501c9.641,6.736,20.566,9.752,32.069,11.347c3.446,0.478,5.582-0.587,7.849-2.981
			C263.637,129.095,269.142,123.859,274.827,118.213z M207.785,93.162c-17.59,17.176-39.434,22.967-62.752,25.399
			c0.233,0.327,0.336,0.523,0.486,0.673c6.08,6.091,12.153,12.188,18.274,18.238c0.403,0.398,1.194,0.639,1.773,0.587
			c6.442-0.578,12.804-1.632,18.974-3.631c8.387-2.717,16.105-6.598,22.261-13.102c0.461-0.487,0.939-1.218,0.943-1.839
			C207.805,110.83,207.785,102.171,207.785,93.162z M116.902,187.572c18.577,17.287,25.418,38.734,25.06,63.283
			c0.68-0.636,1.094-0.999,1.482-1.388c5.568-5.569,11.103-11.173,16.725-16.688c1.016-0.996,1.448-2.01,1.462-3.383
			c0.057-5.191-0.344-10.336-1.57-15.385c-2.434-10.029-7.132-18.753-15.054-25.544c-0.607-0.519-1.582-0.852-2.39-0.857
			c-7.932-0.063-15.864-0.038-23.796-0.038C118.337,187.572,117.853,187.572,116.902,187.572z M301.883,187.672
			c-0.481-0.053-0.691-0.095-0.903-0.095c-8.268-0.002-16.537-0.028-24.804,0.043c-0.802,0.007-1.822,0.414-2.357,0.989
			c-2.814,3.036-5.946,5.904-8.156,9.35c-6.253,9.747-8.293,20.732-8.317,32.157c-0.001,0.619,0.455,1.369,0.92,1.839
			c5.735,5.798,11.511,11.556,17.282,17.317c0.32,0.319,0.692,0.585,1.136,0.954C277.579,226.279,282.939,204.383,301.883,187.672z
			 M141.774,120.373c-0.192,3.329-0.323,6.069-0.514,8.804c-0.711,10.174-2.419,20.165-5.82,29.804
			c-2.928,8.298-6.995,15.938-13.536,22.029c-1.038,0.966-2.152,1.85-3.357,2.877c0.366,0.102,0.514,0.177,0.662,0.177
			c8.209,0.009,16.419,0.025,24.629-0.016c0.619-0.002,1.307-0.301,1.843-0.647c4.03-2.606,6.864-6.275,8.989-10.502
			c5.036-10.015,6.495-20.806,6.732-31.839c0.012-0.568-0.403-1.265-0.826-1.7c-2.584-2.663-5.239-5.258-7.852-7.893
			C149.17,127.882,145.631,124.283,141.774,120.373z M302.837,184.076c-16.71-17.689-28.242-37.178-26.283-62.498
			c-0.376,0.278-0.562,0.383-0.709,0.528c-5.929,5.922-11.86,11.839-17.76,17.791c-0.395,0.398-0.668,1.038-0.752,1.602
			c-0.674,4.436-0.51,8.871,0.498,13.228c2.629,11.363,8.847,20.645,17.029,28.727c0.407,0.402,1.187,0.588,1.796,0.598
			c3.204,0.058,6.411,0.024,9.617,0.024C291.66,184.076,297.048,184.076,302.837,184.076z M273.194,252.227
			c-0.119-0.271-0.138-0.394-0.208-0.464c-5.961-5.973-11.92-11.948-17.909-17.896c-0.365-0.365-0.939-0.637-1.452-0.716
			c-4.16-0.641-8.314-0.427-12.405,0.446C229.524,236.092,220.117,242.49,212,251c-0.395,0.413-0.559,1.199-0.561,1.813
			c-0.036,8.215-0.026,16.43-0.02,24.645c0,0.405,0.082,0.811,0.136,1.313C228.742,261.925,248.081,250.531,273.194,252.227z
			 M145.024,253.04c24.259,0.136,46.051,5.861,62.56,24.974c0.096-0.307,0.181-0.452,0.181-0.599
			c0.01-8.44,0.032-16.883-0.02-25.323c-0.004-0.648-0.378-1.449-0.846-1.911c-2.514-2.482-4.88-5.2-7.72-7.251
			c-10.073-7.278-21.643-9.525-33.82-9.328c-0.716,0.01-1.557,0.59-2.11,1.139c-5.764,5.694-11.481,11.437-17.208,17.17
			C145.745,252.208,145.478,252.535,145.024,253.04z M253.324,139.647c-15.823-1.497-30.042-5.798-41.711-16.661
			c-0.1,0.326-0.183,0.47-0.183,0.615c-0.01,6.917-0.037,13.835,0.03,20.752c0.006,0.602,0.519,1.334,1.006,1.773
			c5.743,5.186,12.728,7.517,20.172,9.011c3.351,0.673,5.6-0.094,7.89-2.629C244.477,148.141,248.819,144.132,253.324,139.647z
			 M166.208,139.836c0.675,0.722,1.041,1.135,1.429,1.525c3.539,3.542,7.082,7.08,10.621,10.621c4.136,4.138,4.135,4.14,9.9,2.993
			c0.385-0.077,0.765-0.176,1.148-0.263c6.444-1.438,12.475-3.771,17.389-8.353c0.598-0.558,1.031-1.605,1.042-2.433
			c0.084-6.3,0.047-12.601,0.042-18.902c0-0.479-0.048-0.958-0.091-1.777c-5.631,5.529-12.083,9.17-19.142,11.79
			C181.459,137.668,174.091,139.071,166.208,139.836z M163.502,229.408c5.341-5.345,10.353-10.344,15.333-15.374
			c0.314-0.317,0.539-0.876,0.544-1.326c0.12-9.268-2.604-17.473-9.25-24.136c-0.553-0.555-1.537-0.948-2.326-0.958
			c-6.408-0.075-12.817-0.043-19.225-0.033c-0.4,0-0.799,0.082-1.498,0.159c5.866,5.495,9.946,11.801,12.671,18.997
			C162.464,213.9,163.441,221.363,163.502,229.408z M271.935,187.676c-0.87-0.048-1.405-0.1-1.941-0.1
			c-5.571-0.006-11.152,0.209-16.705-0.09c-2.998-0.16-4.906,0.997-6.529,3.191c-0.068,0.09-0.133,0.181-0.203,0.27
			c-4.952,6.279-6.58,13.655-6.972,21.411c-0.031,0.599,0.451,1.356,0.914,1.825c4.542,4.606,9.128,9.17,13.706,13.74
			c0.307,0.305,0.649,0.572,1.229,1.08c0.237-7.829,1.341-15.228,3.904-22.359C261.943,199.4,265.912,193.049,271.935,187.676z
			 M254.932,143.024c-5.003,4.999-10.011,9.993-14.99,15.014c-0.276,0.279-0.451,0.792-0.446,1.194
			c0.02,1.905-0.077,3.839,0.225,5.705c1.175,7.251,4.961,13.155,9.917,18.379c0.455,0.479,1.37,0.723,2.074,0.728
			c6.464,0.054,12.929,0.033,19.394,0.025c0.412,0,0.824-0.081,1.505-0.152c-5.491-5.683-9.962-11.761-13.158-18.714
			C256.235,158.208,254.659,150.887,254.932,143.024z M148.045,184.076c1.037,0,1.573,0,2.109,0c5.288,0,10.595-0.269,15.858,0.093
			c3.634,0.249,5.847-1.255,7.611-4.049c0.479-0.759,0.961-1.521,1.374-2.316c3.041-5.87,3.963-12.238,4.278-18.728
			c0.03-0.611-0.394-1.395-0.851-1.857c-4.659-4.728-9.367-9.408-14.068-14.094c-0.279-0.278-0.623-0.493-1.031-0.81
			c-0.171,2.464-0.275,4.706-0.491,6.937c-0.762,7.921-2.307,15.652-5.688,22.928C155.068,176.653,152.265,180.585,148.045,184.076z
			 M166.514,231.281c15.822,0.749,30.058,4.574,41.274,16.899c0-0.979,0-1.524,0-2.069c0-6.131-0.031-12.264,0.024-18.395
			c0.011-1.226-0.357-2.108-1.206-2.975c-5.709-5.822-12.898-8.074-20.764-8.867c-2.619-0.266-4.551,0.416-6.321,2.46
			c-2.35,2.715-5.033,5.144-7.59,7.677C170.141,227.784,168.321,229.525,166.514,231.281z M252.185,231.068
			c-0.622-0.682-0.97-1.092-1.351-1.473c-3.614-3.62-7.442-7.055-10.785-10.912c-2.513-2.898-5.279-3.904-8.885-3.119
			c-0.274,0.06-0.557,0.07-0.833,0.121c-7.229,1.321-13.124,5.068-18.269,10.13c-0.407,0.4-0.617,1.182-0.621,1.787
			c-0.043,6.579-0.029,13.159-0.021,19.737c0,0.351,0.091,0.701,0.161,1.217C222.906,237.629,235.599,230.327,252.185,231.068z
			 M211.505,180.941c8.084-8.091,16.158-16.169,24.295-24.311c-8.861-0.967-17.185-3.567-24.295-9.758
			C211.505,158.443,211.505,169.708,211.505,180.941z M207.659,181.134c0-11.34,0-22.512,0-33.965
			c-7.045,6.219-15.437,8.476-24.309,9.646C191.539,165.006,199.516,172.988,207.659,181.134z M204.69,187.695
			c-11.085,0-22.266,0-33.745,0c6.605,6.928,9.457,15.085,9.57,24.235C188.629,203.797,196.659,195.746,204.69,187.695z
			 M214.639,187.683c7.899,7.901,15.888,15.891,23.533,23.539c0.865-3.816,1.631-8.12,2.843-12.294
			c1.235-4.263,3.72-7.916,6.991-11.244C236.547,187.683,225.448,187.683,214.639,187.683z M171.887,183.921
			c11.169,0,22.07,0,32.44,0c-7.884-7.897-15.954-15.979-23.903-23.94C179.651,168.406,178.534,177.034,171.887,183.921z
			 M238.317,160.262c-7.954,7.956-15.863,15.868-23.714,23.721c11.095,0,22.397,0,33.438,0c-2.291-3.617-4.805-7.173-6.875-10.972
			C239.021,169.075,238.145,164.713,238.317,160.262z M234.745,214.271c-7.73-7.754-15.54-15.583-23.169-23.234
			c0,10.898,0,22.123,0,33.58C218.351,218.334,225.805,214.195,234.745,214.271z M207.697,191.093
			c-7.829,7.836-15.799,15.817-23.627,23.653c8.656,0.326,16.888,2.705,23.627,9.506
			C207.697,212.866,207.697,201.808,207.697,191.093z"/>
		<g clip-path="url(#SVGID_2_)">
			
				<polyline fill-rule="evenodd" clip-rule="evenodd" fill="none" stroke="#FFFFFF" stroke-width="4" stroke-miterlimit="10" points="
				223.155,184.518 205.573,197.29 199.821,211.663 			"/>
			
				<polyline fill-rule="evenodd" clip-rule="evenodd" fill="none" stroke="#FFFFFF" stroke-width="4" stroke-miterlimit="10" points="
				229.111,193.427 217.292,211.663 217.089,227.143 			"/>
			<path fill-rule="evenodd" clip-rule="evenodd" fill="#FFFFFF" stroke="#000000" stroke-width="4" stroke-miterlimit="10" d="
				M352.769,251.916"/>
			<path fill-rule="evenodd" clip-rule="evenodd" fill="#FFFFFF" stroke="#000000" stroke-width="4" stroke-miterlimit="10" d="
				M365.832,204.654"/>
			<g>
				<path fill-rule="evenodd" clip-rule="evenodd" fill="none" stroke="#000000" stroke-miterlimit="10" d="M277.111,185.603
					c0,15.933-12.915,28.848-28.848,28.848s-28.848-12.916-28.848-28.848c0-15.932,12.915-28.848,28.848-28.848
					c7.967,0,15.179,3.229,20.398,8.449C273.883,170.425,277.111,177.637,277.111,185.603z"/>
				
					<polyline fill-rule="evenodd" clip-rule="evenodd" fill="none" stroke="#FFFFFF" stroke-width="4" stroke-miterlimit="10" points="
					265.822,163.531 278.102,145.601 278.697,130.13 				"/>
				
					<polyline fill-rule="evenodd" clip-rule="evenodd" fill="none" stroke="#FFFFFF" stroke-width="4" stroke-miterlimit="10" points="
					271.463,168.238 288.098,154.254 292.817,139.51 				"/>
				
					<polyline fill-rule="evenodd" clip-rule="evenodd" fill="none" stroke="#FFFFFF" stroke-width="4" stroke-miterlimit="10" points="
					273.445,185.606 291.027,198.378 296.778,212.751 				"/>
				
					<polyline fill-rule="evenodd" clip-rule="evenodd" fill="none" stroke="#FFFFFF" stroke-width="4" stroke-miterlimit="10" points="
					267.488,194.516 279.308,212.751 279.511,228.231 				"/>
			</g>
			
				<polyline fill-rule="evenodd" clip-rule="evenodd" fill="none" stroke="#FFFFFF" stroke-width="4" stroke-miterlimit="10" points="
				230.777,162.442 218.499,144.512 217.902,129.042 			"/>
			<path fill-rule="evenodd" clip-rule="evenodd" fill="#291807" stroke="#000000" stroke-miterlimit="10" d="M219.488,184.515
				c0,15.932,12.915,28.848,28.848,28.848s28.848-12.916,28.848-28.848c0-15.933-12.915-28.848-28.848-28.848
				c-7.967,0-15.179,3.229-20.398,8.449C222.717,169.336,219.488,176.548,219.488,184.515z"/>
			
				<polyline fill-rule="evenodd" clip-rule="evenodd" fill="none" stroke="#FFFFFF" stroke-width="4" stroke-miterlimit="10" points="
				225.137,167.15 208.502,153.166 203.782,138.421 			"/>
			
				<ellipse fill-rule="evenodd" clip-rule="evenodd" fill="#FFFFFF" stroke="#FFFFFF" stroke-width="4" stroke-miterlimit="10" cx="238.466" cy="180.705" rx="4.899" ry="3.81"/>
			
				<ellipse fill-rule="evenodd" clip-rule="evenodd" fill="#FFFFFF" stroke="#FFFFFF" stroke-width="4" stroke-miterlimit="10" cx="261.327" cy="180.705" rx="4.899" ry="3.81"/>
		</g>
	</g>
</g>
</svg>
